<svg width="20" height="20" viewBox="0 0 20 20" fill="none" xmlns="http://www.w3.org/2000/svg">
<path fill-rule="evenodd" clip-rule="evenodd" d="M1.17157 1.17157C0 2.34314 0 4.22876 0 7.99999V12C0 15.7712 0 17.6568 1.17157 18.8284C2.34315 20 4.22876 20 8 20H12H12C15.7712 20 17.6569 20 18.8284 18.8284C20 17.6569 20 15.7712 20 12V12V7.99999C20 5.16065 20 3.39017 19.5 2.18855V15C18.5396 15 17.6185 14.6185 16.9393 13.9393L16.1877 13.1877C15.4664 12.4664 15.1057 12.1057 14.6968 11.9537C14.2473 11.7867 13.7527 11.7867 13.3032 11.9537C12.8943 12.1057 12.5336 12.4664 11.8123 13.1877L11.6992 13.3008C11.1138 13.8862 10.8212 14.1788 10.5102 14.2334C10.2685 14.2758 10.0197 14.2279 9.81101 14.0988C9.54254 13.9326 9.3795 13.5522 9.05341 12.7913L9 12.6667C8.25036 10.9175 7.87554 10.0429 7.22167 9.71513C6.89249 9.55011 6.52413 9.47917 6.1572 9.51013C5.42836 9.57164 4.75554 10.2445 3.40989 11.5901L1.5 13.5V0.88739C1.3844 0.973491 1.27519 1.06795 1.17157 1.17157Z" fill="#778088"/>
<path d="M8 1H12C13.9139 1 15.2487 1.00212 16.2558 1.13753C17.2342 1.26907 17.7523 1.50966 18.1213 1.87868C18.4903 2.2477 18.7309 2.76579 18.8625 3.74416C18.9979 4.75129 19 6.08611 19 8V12C19 13.9139 18.9979 15.2487 18.8625 16.2558C18.7309 17.2342 18.4903 17.7523 18.1213 18.1213C17.7523 18.4903 17.2342 18.7309 16.2558 18.8625C15.2487 18.9979 13.9139 19 12 19H8C6.08611 19 4.75129 18.9979 3.74416 18.8625C2.76579 18.7309 2.2477 18.4903 1.87868 18.1213C1.50966 17.7523 1.26907 17.2342 1.13753 16.2558C1.00212 15.2487 1 13.9139 1 12V8C1 6.08611 1.00212 4.75129 1.13753 3.74416C1.26907 2.76579 1.50966 2.2477 1.87868 1.87868C2.2477 1.50966 2.76579 1.26907 3.74416 1.13753C4.75129 1.00212 6.08611 1 8 1Z" stroke="#778088" stroke-width="2"/>
<circle cx="13" cy="7" r="2" fill="#778088"/>
</svg>
